<?xml version="1.0" standalone="no"?>
<!DOCTYPE svg PUBLIC "-//W3C//DTD SVG 20010904//EN"
 "http://www.w3.org/TR/2001/REC-SVG-20010904/DTD/svg10.dtd">
<svg version="1.0" xmlns="http://www.w3.org/2000/svg"
 width="1080.000000pt" height="1080.000000pt" viewBox="0 0 1080.000000 1080.000000"
 preserveAspectRatio="xMidYMid meet">
<metadata>
Created by potrace 1.11, written by Peter Selinger 2001-2013
</metadata>
<g transform="translate(0.000000,1080.000000) scale(0.100000,-0.100000)"
fill="#000000" stroke="none">
<path d="M0 5400 l0 -5400 5400 0 5400 0 0 5400 0 5400 -5400 0 -5400 0 0
-5400z m5388 1680 c196 -21 325 -56 467 -127 54 -28 95 -61 190 -157 139 -139
192 -218 274 -409 l20 -47 196 0 c188 0 195 -1 195 -20 0 -11 11 -57 24 -102
32 -111 62 -259 81 -393 16 -117 36 -415 28 -427 -2 -5 -71 -8 -154 -8 l-149
0 0 -470 0 -469 -137 -3 -138 -3 -7 -135 c-13 -250 -60 -524 -122 -713 -14
-43 -26 -82 -26 -87 0 -6 69 -10 175 -10 112 0 175 -4 175 -10 0 -6 -18 -48
-40 -94 -104 -217 -246 -376 -423 -476 -32 -18 -61 -39 -64 -46 -6 -16 -133
-59 -243 -81 -120 -24 -484 -25 -521 -2 -13 9 -62 28 -109 44 -165 54 -283
126 -400 244 -87 88 -175 216 -230 337 l-39 84 -150 0 c-170 0 -155 -8 -190
96 -66 194 -112 456 -127 732 l-7 122 66 0 67 0 2 473 3 472 240 0 240 0 3
-472 2 -473 -75 0 -75 0 0 -42 c0 -44 25 -317 36 -398 23 -169 110 -429 166
-498 8 -9 56 -12 177 -12 l167 0 56 -69 c31 -38 81 -86 112 -108 37 -25 55
-45 56 -59 0 -25 38 -38 155 -55 206 -28 414 34 552 166 52 50 63 66 63 93 l0
32 -130 0 c-71 0 -130 2 -130 5 0 3 13 32 30 65 84 167 139 428 156 748 l7
132 83 0 84 0 2 473 3 472 234 3 233 2 -6 123 c-19 340 -62 564 -143 740 l-36
77 -256 0 -256 0 -45 61 c-127 175 -325 259 -579 247 -115 -6 -225 -36 -308
-85 -63 -36 -147 -116 -185 -174 l-31 -49 -264 0 c-145 0 -263 3 -263 6 0 3
24 56 54 117 79 164 186 312 279 385 167 131 328 193 582 227 128 16 202 18
323 5z m-2878 -385 l0 -355 -145 0 -145 0 0 -470 0 -470 203 -2 202 -3 3 -472
2 -473 -70 0 -70 0 0 -475 0 -475 -205 0 -205 0 0 -335 0 -335 -175 0 -175 0
0 335 0 335 130 0 130 0 0 475 0 475 65 0 65 0 0 470 0 470 -160 0 -160 0 0
475 0 475 -65 0 c-56 0 -89 -9 -238 -66 -94 -36 -177 -71 -182 -78 -9 -11
-428 -178 -487 -194 -17 -4 -18 9 -18 166 l0 171 78 3 77 3 3 67 c3 59 5 68
25 74 12 3 117 43 232 89 116 45 320 125 455 178 135 53 322 126 415 162 94
37 208 82 255 100 47 19 102 34 123 35 l37 0 0 -355z m7188 183 l3 -146 -81
-188 c-44 -104 -80 -192 -80 -196 0 -4 56 -8 125 -8 69 0 125 -2 125 -5 0 -4
-222 -526 -260 -610 -9 -22 -43 -101 -75 -175 -31 -74 -62 -141 -67 -147 -7
-9 -40 -13 -98 -13 l-87 0 -28 -67 c-15 -38 -37 -88 -48 -113 -51 -116 -77
-185 -77 -207 0 -14 -51 -144 -112 -289 l-112 -264 -253 0 c-145 0 -253 4
-253 9 0 5 14 40 31 78 17 37 107 241 201 453 93 212 175 391 180 398 7 8 41
12 103 12 l93 0 52 118 c29 65 55 143 60 175 6 39 49 149 138 350 l129 292
-128 3 c-71 1 -129 4 -129 6 0 2 22 52 50 112 27 60 50 115 50 121 0 10 -221
13 -1057 15 l-1058 3 -3 205 c-1 112 0 210 2 217 4 11 261 13 1333 11 l1328
-3 3 -147z m-5923 -611 c-85 -184 -132 -417 -142 -709 -6 -167 -6 -168 -29
-168 -13 0 -25 4 -28 8 -9 15 14 323 34 455 14 93 20 180 20 308 l0 179 89 0
90 0 -34 -73z m1884 -11 c-83 -177 -119 -367 -145 -768 l-6 -98 -164 0 -164 0
0 475 0 475 259 0 260 0 -40 -84z m3511 -1815 c0 -4 -27 -71 -60 -149 l-60
-140 0 -326 0 -326 -195 0 c-107 0 -195 4 -195 9 0 5 52 125 116 267 64 143
129 288 144 324 15 36 49 112 74 169 25 57 46 118 46 136 0 17 3 35 7 38 9 10
123 8 123 -2z m-1670 -826 l0 -115 -50 0 c-27 0 -50 4 -50 10 0 11 91 220 96
220 2 0 4 -52 4 -115z m-3958 -248 c8 -158 21 -242 59 -375 16 -56 29 -116 29
-132 l0 -30 -263 0 -264 0 -11 25 c-15 32 -52 214 -52 252 0 16 -3 32 -6 36
-4 3 -43 -27 -88 -68 l-81 -75 -3 236 c-2 167 1 241 9 250 10 12 69 14 338 12
l326 -3 7 -128z m4905 121 c-3 -7 -30 -71 -62 -143 -31 -71 -70 -160 -86 -198
-16 -37 -29 -79 -29 -93 0 -14 -19 -70 -42 -125 l-42 -99 -263 0 c-153 0 -263
4 -263 9 0 9 19 56 58 141 82 182 222 503 222 511 0 5 109 9 256 9 201 0 255
-3 251 -12z"/>
<path d="M1933 6364 c-18 -8 -33 -16 -33 -19 0 -3 23 -5 50 -5 43 0 50 3 50
20 0 24 -20 25 -67 4z"/>
</g>
</svg>
